<svg xmlns="http://www.w3.org/2000/svg" xmlns:xlink="http://www.w3.org/1999/xlink" width="500" zoomAndPan="magnify" viewBox="0 0 375 374.999991" height="500" preserveAspectRatio="xMidYMid meet" version="1.0"><path fill="#000000" d="M 80.601562 290.019531 C 77.972656 290.019531 75.710938 289.710938 73.851562 289.042969 C 71.070312 288.066406 68.800781 286.261719 67.203125 286.261719 C 66.125 286.261719 65.453125 287.136719 65.246094 289.042969 L 63.808594 289.042969 L 63.808594 275.242188 L 65.246094 275.242188 C 67.410156 283.742188 72.511719 288.21875 80.242188 288.21875 C 87.714844 288.21875 91.574219 285.386719 91.574219 280.855469 C 91.574219 276.273438 88.429688 274.984375 77.410156 274.417969 C 68.75 273.957031 64.273438 269.421875 64.273438 262.324219 C 64.273438 255.113281 69.988281 249.757812 77.769531 249.757812 L 78.238281 249.757812 C 80.449219 249.703125 82.507812 250.121094 84.464844 250.683594 C 86.21875 251.199219 90.546875 253.515625 91.269531 253.515625 C 92.296875 253.515625 92.609375 253.003906 92.710938 250.683594 L 94.203125 250.683594 L 94.203125 263.246094 L 92.710938 263.246094 C 90.957031 256.195312 85.238281 251.507812 78.285156 251.507812 C 72 251.507812 68.855469 254.445312 68.855469 257.996094 C 68.855469 263.914062 76.273438 263.195312 82.871094 263.816406 C 91.21875 264.589844 96.675781 268.242188 96.675781 276.742188 C 96.675781 284.617188 90.234375 290.019531 80.601562 290.019531 " fill-opacity="1" fill-rule="nonzero"/><path fill="#000000" d="M 117.738281 289.042969 L 117.738281 287.242188 L 121.089844 287.242188 L 121.089844 268.859375 C 121.089844 265.207031 119.285156 263.09375 115.835938 263.09375 C 112.996094 263.09375 109.859375 266.027344 109.859375 268.859375 L 109.859375 287.242188 L 113.257812 287.242188 L 113.257812 289.042969 L 97.542969 289.042969 L 97.542969 287.242188 L 100.890625 287.242188 L 100.890625 252.488281 L 97.542969 252.488281 L 97.542969 250.683594 L 109.855469 250.683594 L 109.855469 264.332031 C 111.609375 262.324219 114.082031 260.621094 118.304688 260.621094 C 127.425781 260.621094 130.054688 265.101562 130.054688 270.714844 L 130.054688 287.242188 L 133.453125 287.242188 L 133.453125 289.042969 L 117.738281 289.042969 " fill-opacity="1" fill-rule="nonzero"/><path fill="#000000" d="M 154.824219 273.441406 C 154.824219 267.878906 154 262.21875 149.105469 262.21875 C 145.449219 262.21875 142.613281 267.878906 142.613281 273.441406 L 154.824219 273.441406 M 133.597656 275.65625 C 133.597656 266.285156 140.035156 260.621094 149.207031 260.621094 C 157.820312 260.621094 162.449219 266.335938 162.707031 275.246094 L 142.5625 275.246094 C 142.5625 283.28125 145.808594 287.5 151.117188 287.5 C 154.667969 287.5 161.160156 285.234375 161.160156 278.433594 L 161.160156 278.28125 L 162.710938 278.28125 L 162.710938 278.644531 C 162.710938 284.667969 157.710938 290.023438 148.847656 290.023438 C 140.039062 290.019531 133.597656 284.976562 133.597656 275.65625 " fill-opacity="1" fill-rule="nonzero"/><path fill="#000000" d="M 185.996094 262.78125 C 186.148438 262.78125 186.25 262.78125 186.402344 262.839844 C 185.890625 262.523438 185.273438 262.21875 184.449219 262.21875 C 178.164062 262.21875 176.050781 268.394531 176.050781 274.421875 L 176.050781 287.238281 L 179.445312 287.238281 L 179.445312 289.039062 L 163.734375 289.039062 L 163.734375 287.238281 L 167.085938 287.238281 L 167.085938 263.347656 L 163.734375 263.347656 L 163.734375 261.550781 L 176.050781 261.550781 L 176.050781 264.332031 C 177.800781 262.320312 179.914062 260.621094 184.140625 260.621094 C 186.921875 260.621094 190.21875 262.421875 190.21875 266.953125 C 190.21875 269.273438 188.3125 271.125 185.996094 271.125 C 183.726562 271.125 181.871094 269.273438 181.871094 266.953125 C 181.871094 264.6875 183.726562 262.78125 185.996094 262.78125 " fill-opacity="1" fill-rule="nonzero"/><path fill="#000000" d="M 208.347656 273.132812 C 207.730469 273.804688 206.285156 274.574219 204.484375 275.398438 C 200.308594 277.300781 199.332031 278.742188 199.332031 282.035156 C 199.332031 284.871094 200.46875 287.5 203.453125 287.5 C 205.824219 287.5 208.347656 285.179688 208.347656 282.863281 L 208.347656 273.132812 M 200.257812 268.449219 C 200.257812 270.765625 198.40625 272.511719 196.136719 272.511719 C 193.355469 272.511719 191.964844 270.40625 191.964844 267.824219 C 191.964844 263.453125 197.0625 260.621094 204.738281 260.621094 C 215.765625 260.621094 217.828125 264.535156 217.828125 272.769531 L 217.828125 283.023438 C 217.828125 285.335938 217.980469 286.71875 219.835938 286.71875 C 221.640625 286.71875 222.207031 284.71875 222.207031 280.804688 L 222.207031 280.234375 L 223.703125 280.234375 L 223.703125 281.058594 C 223.703125 289.09375 220.355469 290.019531 215.765625 290.019531 C 212.523438 290.019531 210.308594 288.628906 209.171875 285.441406 C 207.675781 288.421875 203.765625 290.019531 199.898438 290.019531 C 193.046875 290.019531 190.367188 286.570312 190.367188 282.246094 C 190.367188 274.675781 198.351562 274.726562 203.914062 273.234375 C 207.117188 272.359375 208.65625 270.714844 208.65625 268.136719 C 208.65625 264.585938 206.03125 262.523438 202.011719 262.523438 C 199.75 262.523438 197.628906 263.503906 196.496094 264.382812 C 198.609375 264.535156 200.257812 266.285156 200.257812 268.449219 " fill-opacity="1" fill-rule="nonzero"/><path fill="#000000" d="M 226.265625 281.0625 L 226.265625 263.347656 L 222.917969 263.347656 L 222.917969 261.550781 C 228.070312 261.550781 231.832031 257.839844 232.96875 252.023438 L 235.078125 252.023438 L 235.078125 261.550781 L 240.175781 261.550781 L 240.175781 263.347656 L 235.078125 263.347656 L 235.078125 283.019531 C 235.078125 285.488281 236.414062 286.726562 238.21875 286.726562 C 239.972656 286.726562 241.363281 284.714844 241.363281 280.808594 L 241.363281 280.238281 L 242.910156 280.238281 L 242.910156 281.0625 C 242.910156 288.21875 239.617188 290.019531 234.304688 290.019531 C 228.996094 290.019531 226.265625 288.21875 226.265625 281.0625 " fill-opacity="1" fill-rule="nonzero"/><path fill="#000000" d="M 259.339844 262.21875 C 254.808594 262.21875 253.003906 267.109375 253.003906 275.65625 C 253.003906 284.304688 254.808594 288.375 259.339844 288.375 C 263.5625 288.375 265.679688 284.304688 265.679688 275.65625 C 265.679688 267.109375 263.5625 262.21875 259.339844 262.21875 M 259.390625 290.019531 C 250.679688 290.019531 244.085938 284.972656 244.085938 275.65625 C 244.085938 266.285156 250.679688 260.621094 259.339844 260.621094 C 268.921875 260.621094 274.589844 266.285156 274.589844 275.65625 C 274.589844 284.972656 268.199219 290.019531 259.390625 290.019531 " fill-opacity="1" fill-rule="nonzero"/><path fill="#000000" d="M 295.765625 289.042969 L 295.765625 287.242188 L 299.117188 287.242188 L 299.117188 268.859375 C 299.117188 265.207031 297.308594 263.09375 293.859375 263.09375 C 291.023438 263.09375 287.878906 266.027344 287.878906 268.859375 L 287.878906 287.242188 L 291.28125 287.242188 L 291.28125 289.042969 L 275.566406 289.042969 L 275.566406 287.242188 L 278.917969 287.242188 L 278.917969 263.347656 L 275.566406 263.347656 L 275.566406 261.550781 L 287.882812 261.550781 L 287.882812 264.332031 C 289.636719 262.324219 292.109375 260.621094 296.335938 260.621094 C 305.449219 260.621094 308.078125 265.101562 308.078125 270.714844 L 308.078125 287.242188 L 311.480469 287.242188 L 311.480469 289.042969 L 295.765625 289.042969 " fill-opacity="1" fill-rule="nonzero"/><path fill="#000000" d="M 172.347656 218.46875 C 168.300781 218.46875 165.011719 220.113281 162.816406 220.660156 C 161.613281 220.988281 158.113281 221.976562 155.257812 220.660156 C 154.707031 220.441406 152.953125 220.332031 155.046875 222.636719 C 155.589844 223.289062 156.679688 223.949219 157.992188 224.605469 C 165.011719 227.996094 171.25 226.574219 178.8125 223.175781 C 180.675781 222.308594 183.742188 222.410156 183.742188 221.425781 C 183.636719 220.441406 182.101562 219.789062 181.003906 218.257812 C 176.839844 212.339844 171.691406 207.410156 165.449219 205.113281 C 162.160156 203.804688 160.625 204.789062 161.613281 205.65625 C 164.023438 207.960938 165.226562 212.230469 168.40625 215.847656 C 169.394531 216.9375 170.816406 218.035156 172.347656 218.46875 " fill-opacity="1" fill-rule="nonzero"/><path fill="#000000" d="M 183.089844 215.292969 C 183.089844 212.996094 186.589844 209.496094 187.25 207.410156 C 188.015625 209.496094 191.414062 212.992188 191.414062 215.292969 C 191.414062 217.59375 189.550781 219.457031 187.25 219.457031 C 184.953125 219.457031 183.089844 217.59375 183.089844 215.292969 " fill-opacity="1" fill-rule="nonzero"/><path fill="#000000" d="M 183.089844 226.683594 C 183.089844 228.984375 186.589844 232.597656 187.25 234.679688 C 188.015625 232.597656 191.414062 228.984375 191.414062 226.683594 C 191.414062 224.386719 189.550781 222.523438 187.25 222.523438 C 184.953125 222.523438 183.089844 224.386719 183.089844 226.683594 " fill-opacity="1" fill-rule="nonzero"/><path fill="#000000" d="M 151.636719 209.820312 C 147.917969 208.507812 144.410156 208.835938 142.109375 208.617188 C 140.902344 208.398438 137.507812 208.289062 135.3125 206.207031 C 134.878906 205.777344 133.34375 205.007812 134.441406 207.964844 C 134.65625 208.617188 135.421875 209.496094 136.414062 210.585938 C 141.78125 216.0625 147.917969 216.828125 155.804688 216.171875 C 157.890625 216.0625 161.285156 216.828125 161.503906 215.84375 C 161.722656 214.96875 160.078125 214.09375 159.53125 212.449219 C 157.664062 205.65625 154.707031 199.421875 149.78125 195.257812 C 147.257812 193.074219 145.398438 193.507812 146.046875 194.601562 C 147.476562 197.453125 147.152344 201.722656 148.902344 206.097656 C 149.457031 207.410156 150.429688 208.835938 151.636719 209.820312 " fill-opacity="1" fill-rule="nonzero"/><path fill="#000000" d="M 134.65625 194.382812 C 131.699219 192.085938 128.300781 191.425781 126.332031 190.664062 C 125.121094 190.109375 122.167969 189.015625 120.742188 186.496094 C 120.417969 185.953125 119.210938 184.859375 119.320312 187.808594 C 119.429688 188.476562 119.867188 189.566406 120.523438 190.992188 C 123.8125 197.335938 129.289062 199.859375 136.742188 201.390625 C 138.601562 201.941406 141.566406 203.476562 142 202.707031 C 142.546875 202.046875 141.125 200.734375 141.234375 198.980469 C 141.34375 192.304688 140.355469 185.734375 136.964844 180.589844 C 135.421875 177.742188 133.5625 177.632812 133.894531 178.949219 C 134.328125 181.902344 132.90625 185.734375 133.234375 190.21875 C 133.34375 191.644531 133.894531 193.175781 134.65625 194.382812 " fill-opacity="1" fill-rule="nonzero"/><path fill="#000000" d="M 124.355469 175.773438 C 122.273438 172.808594 119.433594 171.171875 117.894531 169.855469 C 116.910156 169.085938 114.496094 167.121094 114.0625 164.378906 C 113.839844 163.832031 113.074219 162.523438 112.304688 165.257812 C 112.304688 165.914062 112.304688 167.011719 112.523438 168.433594 C 113.617188 175.328125 117.894531 179.164062 124.136719 182.777344 C 125.785156 183.875 127.96875 186.0625 128.632812 185.621094 C 129.285156 185.078125 128.410156 183.542969 128.957031 182.011719 C 131.152344 175.882812 132.136719 169.53125 130.605469 163.832031 C 129.945312 160.769531 128.296875 160.222656 128.296875 161.421875 C 127.757812 164.269531 125.34375 167.34375 124.351562 171.609375 C 124.03125 172.808594 124.03125 174.457031 124.355469 175.773438 " fill-opacity="1" fill-rule="nonzero"/><path fill="#000000" d="M 120.855469 154.640625 C 120.082031 151.460938 118 149.050781 117.128906 147.300781 C 116.6875 146.316406 115.152344 143.792969 115.699219 141.171875 C 115.699219 140.730469 115.480469 139.195312 113.945312 141.390625 C 113.617188 141.9375 113.296875 143.023438 112.960938 144.234375 C 111.640625 150.589844 114.164062 155.40625 118.332031 160.773438 C 119.433594 162.191406 120.523438 165.042969 121.183594 164.710938 C 121.953125 164.488281 121.835938 162.847656 122.820312 161.757812 C 126.660156 157.046875 129.722656 151.789062 130.164062 146.316406 C 130.605469 143.46875 129.398438 142.257812 129.074219 143.359375 C 127.648438 145.769531 124.359375 147.621094 122.277344 151.027344 C 121.511719 151.898438 120.855469 153.429688 120.855469 154.640625 " fill-opacity="1" fill-rule="nonzero"/><path fill="#000000" d="M 123.589844 134.816406 C 123.589844 131.640625 122.386719 128.90625 121.949219 127.15625 C 121.734375 126.058594 121.066406 123.425781 122.167969 121.238281 C 122.273438 120.691406 122.382812 119.269531 120.417969 120.914062 C 120.082031 121.351562 119.53125 122.226562 118.882812 123.324219 C 116.140625 128.792969 117.230469 133.941406 119.753906 139.855469 C 120.417969 141.390625 120.742188 144.234375 121.398438 144.125 C 122.167969 144.125 122.5 142.589844 123.589844 141.714844 C 128.300781 138.328125 132.355469 134.375 134.21875 129.453125 C 135.3125 126.9375 134.441406 125.511719 133.894531 126.386719 C 132.023438 128.246094 128.632812 129.121094 125.785156 131.863281 C 124.800781 132.410156 123.921875 133.71875 123.589844 134.816406 " fill-opacity="1" fill-rule="nonzero"/><path fill="#000000" d="M 131.476562 117.191406 C 132.46875 114.121094 132.023438 111.164062 132.140625 109.304688 C 132.140625 108.210938 132.246094 105.46875 133.890625 103.613281 C 134.21875 103.28125 134.65625 101.96875 132.46875 102.953125 C 131.917969 103.167969 131.152344 103.828125 130.277344 104.816406 C 126.007812 109.304688 125.671875 114.5625 126.433594 120.914062 C 126.65625 122.664062 126.21875 125.402344 126.882812 125.511719 C 127.648438 125.726562 128.300781 124.300781 129.722656 123.757812 C 135.09375 121.894531 140.136719 119.160156 143.199219 114.996094 C 144.957031 112.808594 144.628906 111.277344 143.75 111.933594 C 141.449219 113.136719 137.941406 113.136719 134.441406 114.882812 C 133.34375 115.21875 132.140625 116.203125 131.476562 117.191406 " fill-opacity="1" fill-rule="nonzero"/><path fill="#000000" d="M 143.644531 103.167969 C 145.402344 100.871094 146.050781 98.355469 146.601562 96.820312 C 147.035156 96.054688 147.917969 93.753906 149.890625 92.882812 C 150.324219 92.550781 151.09375 91.566406 148.902344 91.785156 C 148.464844 91.785156 147.476562 92.113281 146.492188 92.550781 C 141.671875 94.957031 139.699219 99.121094 138.277344 104.597656 C 137.945312 106.019531 136.742188 108.210938 137.289062 108.539062 C 137.835938 108.867188 138.824219 107.992188 140.03125 107.992188 C 145.179688 108.101562 150.222656 107.445312 153.941406 104.925781 C 156.027344 103.71875 156.238281 102.40625 155.367188 102.628906 C 153.070312 102.953125 150.222656 101.859375 146.816406 102.078125 C 145.726562 102.078125 144.515625 102.515625 143.644531 103.167969 " fill-opacity="1" fill-rule="nonzero"/><path fill="#000000" d="M 157.445312 93.867188 C 159.3125 92.332031 160.292969 90.253906 161.179688 89.046875 C 161.613281 88.5 162.816406 86.640625 164.675781 86.203125 C 165.109375 86.09375 165.878906 85.328125 164.023438 85.105469 C 163.582031 84.996094 162.816406 85.105469 161.828125 85.328125 C 157.226562 86.421875 154.707031 89.703125 152.523438 94.304688 C 151.96875 95.398438 150.429688 97.152344 150.988281 97.480469 C 151.308594 97.808594 152.40625 97.152344 153.503906 97.480469 C 157.773438 98.574219 162.265625 98.90625 165.996094 97.371094 C 167.964844 96.710938 168.402344 95.617188 167.632812 95.726562 C 165.554688 95.507812 163.359375 94.085938 160.289062 93.644531 C 159.425781 93.429688 158.214844 93.535156 157.445312 93.867188 " fill-opacity="1" fill-rule="nonzero"/><path fill="#000000" d="M 178.921875 86.527344 C 177.503906 89.59375 173.875 90.574219 172.785156 90.910156 C 171.910156 91.238281 168.179688 92.222656 165.445312 90.363281 C 166.871094 87.292969 170.484375 86.3125 171.472656 85.980469 C 172.460938 85.765625 176.078125 84.671875 178.921875 86.527344 " fill-opacity="1" fill-rule="nonzero"/><path fill="#000000" d="M 209.832031 117.738281 C 212.238281 118.609375 214.316406 117.515625 215.199219 115.542969 C 215.628906 114.675781 215.84375 114.121094 215.84375 113.25 L 219.03125 113.25 L 219.03125 138.980469 L 216.734375 138.980469 C 212.785156 128.242188 202.929688 117.84375 191.414062 115.328125 C 180.023438 113.574219 166.765625 113.792969 160.191406 123.757812 C 158.324219 126.488281 159.308594 132.078125 162.816406 134.050781 C 174.539062 141.167969 187.359375 137.878906 202.929688 140.070312 C 210.804688 141.167969 219.464844 145.65625 222.972656 154.417969 C 226.375 162.847656 225.714844 171.5 222.320312 177.191406 C 214.316406 190.875 199.417969 192.191406 189.878906 192.191406 C 179.90625 192.191406 169.933594 187.59375 162.046875 184.742188 C 159.640625 183.875 157.558594 184.964844 156.679688 186.9375 C 156.238281 187.808594 156.019531 188.472656 156.019531 189.238281 L 152.847656 189.238281 L 152.847656 162.082031 C 153.722656 162.082031 154.703125 162.082031 156.019531 162.191406 C 159.085938 174.671875 168.949219 183.878906 178.8125 186.71875 C 190.210938 190.109375 201.601562 189.566406 210.480469 183.324219 C 213.988281 180.917969 215.304688 175.664062 213.988281 171.0625 C 212.011719 164.160156 201.378906 162.300781 193.710938 162.191406 C 177.277344 161.757812 157.34375 161.972656 151.421875 143.90625 C 149.121094 135.253906 150.546875 125.726562 156.785156 119.269531 C 167.089844 109.195312 184.402344 108.871094 197.550781 112.917969 C 202.265625 113.902344 205.4375 116.417969 209.832031 117.738281 " fill-opacity="1" fill-rule="nonzero"/><path fill="#000000" d="M 202.152344 218.46875 C 206.203125 218.46875 209.492188 220.113281 211.796875 220.660156 C 213.003906 220.988281 216.394531 221.976562 219.253906 220.660156 C 219.796875 220.441406 221.554688 220.332031 219.464844 222.636719 C 218.914062 223.289062 217.824219 223.949219 216.515625 224.605469 C 209.492188 227.996094 203.257812 226.574219 195.808594 223.175781 C 193.824219 222.308594 190.757812 222.410156 190.863281 221.425781 C 190.863281 220.441406 192.398438 219.789062 193.496094 218.257812 C 197.664062 212.339844 202.816406 207.410156 209.0625 205.113281 C 212.339844 203.804688 213.886719 204.789062 212.898438 205.65625 C 210.484375 207.960938 209.386719 212.230469 206.101562 215.847656 C 205.117188 216.9375 203.683594 218.035156 202.152344 218.46875 " fill-opacity="1" fill-rule="nonzero"/><path fill="#000000" d="M 222.871094 209.820312 C 226.585938 208.507812 230.09375 208.835938 232.394531 208.617188 C 233.601562 208.398438 237.109375 208.289062 239.191406 206.207031 C 239.632812 205.777344 241.167969 205.007812 240.0625 207.964844 C 239.84375 208.617188 239.078125 209.496094 238.101562 210.585938 C 232.722656 216.0625 226.585938 216.828125 218.695312 216.171875 C 216.617188 216.0625 213.324219 216.828125 213.003906 215.84375 C 212.785156 214.96875 214.433594 214.09375 214.976562 212.449219 C 216.835938 205.65625 219.800781 199.421875 224.726562 195.257812 C 227.25 193.074219 229.105469 193.507812 228.453125 194.601562 C 227.027344 197.453125 227.355469 201.722656 225.609375 206.097656 C 225.050781 207.410156 224.074219 208.835938 222.871094 209.820312 " fill-opacity="1" fill-rule="nonzero"/><path fill="#000000" d="M 239.839844 194.382812 C 242.808594 192.085938 246.199219 191.425781 248.183594 190.664062 C 249.378906 190.109375 252.449219 189.015625 253.765625 186.496094 C 254.09375 185.953125 255.296875 184.859375 255.195312 187.808594 C 255.078125 188.476562 254.648438 189.566406 253.988281 190.992188 C 250.699219 197.335938 245.21875 199.859375 237.761719 201.390625 C 235.902344 201.941406 232.941406 203.476562 232.515625 202.707031 C 232.070312 202.046875 233.386719 200.734375 233.277344 198.980469 C 233.164062 192.304688 234.148438 185.734375 237.542969 180.589844 C 239.191406 177.742188 240.949219 177.632812 240.621094 178.949219 C 240.179688 181.902344 241.59375 185.734375 241.273438 190.21875 C 241.164062 191.644531 240.621094 193.175781 239.839844 194.382812 " fill-opacity="1" fill-rule="nonzero"/><path fill="#000000" d="M 250.152344 175.773438 C 252.230469 172.808594 255.078125 171.171875 256.726562 169.855469 C 257.601562 169.085938 260.015625 167.121094 260.558594 164.378906 C 260.664062 163.832031 261.433594 162.523438 262.195312 165.257812 C 262.316406 165.914062 262.195312 167.011719 262.09375 168.433594 C 261 175.328125 256.609375 179.164062 250.371094 182.777344 C 248.71875 183.875 246.539062 186.0625 245.988281 185.621094 C 245.328125 185.078125 246.097656 183.542969 245.550781 182.011719 C 243.464844 175.882812 242.363281 169.53125 243.894531 163.832031 C 244.664062 160.769531 246.199219 160.222656 246.199219 161.421875 C 246.757812 164.269531 249.269531 167.34375 250.152344 171.609375 C 250.59375 172.808594 250.59375 174.457031 250.152344 175.773438 " fill-opacity="1" fill-rule="nonzero"/><path fill="#000000" d="M 253.660156 154.640625 C 254.53125 151.460938 256.503906 149.050781 257.378906 147.300781 C 257.820312 146.316406 259.355469 143.792969 258.804688 141.171875 C 258.804688 140.730469 259.132812 139.195312 260.664062 141.390625 C 261.003906 141.9375 261.210938 143.023438 261.546875 144.234375 C 262.859375 150.589844 260.339844 155.40625 256.285156 160.773438 C 255.078125 162.191406 253.988281 165.042969 253.320312 164.710938 C 252.554688 164.488281 252.777344 162.847656 251.785156 161.757812 C 247.855469 157.046875 244.886719 151.789062 244.34375 146.316406 C 243.898438 143.46875 245.109375 142.257812 245.433594 143.359375 C 246.863281 145.769531 250.152344 147.621094 252.230469 151.027344 C 253.113281 151.898438 253.660156 153.429688 253.660156 154.640625 " fill-opacity="1" fill-rule="nonzero"/><path fill="#000000" d="M 251.023438 134.816406 C 250.914062 131.640625 252.125 128.90625 252.554688 127.15625 C 252.78125 126.058594 253.539062 123.425781 252.449219 121.238281 C 252.226562 120.691406 252.125 119.269531 254.09375 120.914062 C 254.53125 121.351562 254.972656 122.226562 255.621094 123.324219 C 258.480469 128.792969 257.273438 133.941406 254.855469 139.855469 C 254.203125 141.390625 253.765625 144.234375 253.117188 144.125 C 252.347656 144.125 252.121094 142.589844 250.914062 141.714844 C 246.3125 138.328125 242.160156 134.375 240.28125 129.453125 C 239.296875 126.9375 240.0625 125.511719 240.726562 126.386719 C 242.480469 128.246094 245.988281 129.121094 248.835938 131.863281 C 249.707031 132.410156 250.699219 133.71875 251.023438 134.816406 " fill-opacity="1" fill-rule="nonzero"/><path fill="#000000" d="M 243.027344 117.191406 C 242.039062 114.121094 242.480469 111.164062 242.480469 109.304688 C 242.367188 108.210938 242.261719 105.46875 240.625 103.613281 C 240.402344 103.28125 239.839844 101.96875 242.15625 102.953125 C 242.585938 103.167969 243.347656 103.828125 244.238281 104.816406 C 248.503906 109.304688 248.839844 114.5625 248.070312 120.914062 C 247.855469 122.664062 248.289062 125.402344 247.628906 125.511719 C 246.863281 125.726562 246.199219 124.300781 244.886719 123.757812 C 239.414062 121.894531 234.371094 119.160156 231.304688 114.996094 C 229.550781 112.808594 229.988281 111.277344 230.757812 111.933594 C 233.058594 113.136719 236.570312 113.136719 240.066406 114.882812 C 241.164062 115.21875 242.363281 116.203125 243.027344 117.191406 " fill-opacity="1" fill-rule="nonzero"/><path fill="#000000" d="M 231.082031 103.0625 C 229.445312 100.761719 228.78125 98.246094 228.238281 96.710938 C 227.796875 95.945312 226.808594 93.648438 224.945312 92.765625 C 224.507812 92.445312 223.738281 91.453125 225.9375 91.675781 C 226.378906 91.675781 227.253906 92.003906 228.339844 92.445312 C 233.164062 94.847656 235.136719 99.011719 236.453125 104.484375 C 236.777344 106.019531 238.101562 108.101562 237.542969 108.425781 C 237 108.863281 236.011719 107.878906 234.691406 107.878906 C 229.652344 108.101562 224.621094 107.332031 220.894531 104.917969 C 218.695312 103.609375 218.59375 102.296875 219.359375 102.511719 C 221.761719 102.84375 224.625 101.746094 228.019531 101.96875 C 229.003906 101.96875 230.320312 102.40625 231.082031 103.0625 " fill-opacity="1" fill-rule="nonzero"/><path fill="#000000" d="M 217.160156 93.867188 C 215.304688 92.332031 214.316406 90.253906 213.445312 88.9375 C 213.003906 88.386719 211.792969 86.640625 209.933594 86.09375 C 209.496094 85.980469 208.726562 85.328125 210.597656 85.105469 C 211.027344 84.996094 211.910156 85.105469 212.785156 85.328125 C 217.382812 86.417969 219.902344 89.703125 222.101562 94.199219 C 222.648438 95.398438 224.183594 97.039062 223.636719 97.371094 C 223.316406 97.808594 222.203125 97.148438 221.113281 97.480469 C 216.835938 98.570312 212.335938 98.796875 208.726562 97.371094 C 206.648438 96.710938 206.203125 95.503906 206.976562 95.617188 C 209.066406 95.398438 211.25 93.976562 214.316406 93.535156 C 215.199219 93.316406 216.394531 93.535156 217.160156 93.867188 " fill-opacity="1" fill-rule="nonzero"/><path fill="#000000" d="M 195.585938 86.527344 C 197 89.59375 200.617188 90.574219 201.71875 90.910156 C 202.59375 91.238281 206.324219 92.222656 209.0625 90.363281 C 207.632812 87.292969 204.023438 86.3125 203.03125 85.980469 C 202.042969 85.765625 198.433594 84.671875 195.585938 86.527344 " fill-opacity="1" fill-rule="nonzero"/></svg>