<?xml version="1.0" encoding="UTF-8"?>
<svg version="1.1" xmlns="http://www.w3.org/2000/svg" width="146" height="118">
<path d="M0 0 C3.51143129 0.29425402 7.02376116 0.57566568 10.53651619 0.8536129 C13.9227265 1.12345467 17.30797533 1.40455183 20.69335938 1.68457031 C21.94649933 1.78361664 23.19963928 1.88266296 24.49075317 1.98471069 C26.2445076 2.13463974 26.2445076 2.13463974 28.03369141 2.28759766 C29.05576691 2.3719809 30.07784241 2.45636414 31.13088989 2.54330444 C35.29028059 3.15426464 38.96826571 3.73262586 41.81054688 6.96191406 C42.22304687 7.72890625 42.63554688 8.49589844 43.06054688 9.28613281 C43.49367188 10.04539062 43.92679687 10.80464844 44.37304688 11.58691406 C45.48572557 15.44967931 43.67850542 17.78782047 41.90429688 21.19238281 C38.60919036 26.78640085 34.88079675 31.91657736 30.87719727 37.01464844 C27.3679498 41.50543472 24.18380399 46.15659206 21.06835938 50.93066406 C19.27423739 53.64977112 17.42919234 56.31929867 15.55419922 58.98242188 C12.63191372 63.1357156 9.79649902 67.2573348 7.37304688 71.72363281 C6.98761719 72.4184375 6.6021875 73.11324219 6.20507812 73.82910156 C5.38309661 75.36926487 4.61558014 76.93895931 3.88476562 78.52441406 C2.47543221 81.1975745 1.37083131 83.01393629 -0.93945312 84.97363281 C-5.40681578 85.97628278 -9.47945568 86.01660379 -13.93945312 84.97363281 C-17.38415069 82.10270301 -19.00992672 79.16191185 -20.78710938 75.08300781 C-21.30442627 73.91036377 -21.82174316 72.73771973 -22.35473633 71.52954102 C-22.90384961 70.2609227 -23.45292089 68.99228621 -24.00195312 67.72363281 C-24.86778256 65.75170049 -25.73689936 63.7812364 -26.60600281 61.81074524 C-27.19444608 60.4756941 -27.78177174 59.14014982 -28.36799622 57.80412292 C-31.09235492 51.59888489 -33.91229554 45.43939581 -36.75195312 39.28613281 C-37.64044452 37.34884856 -38.52847712 35.41135381 -39.41601562 33.47363281 C-40.66878155 30.73962718 -41.92401847 28.0069398 -43.18847656 25.27832031 C-44.34315657 22.78473255 -45.48627404 20.28614903 -46.62695312 17.78613281 C-46.96637939 17.06143799 -47.30580566 16.33674316 -47.65551758 15.59008789 C-49.3044793 11.94628041 -50.5875625 8.98772961 -49.93945312 4.97363281 C-43.15858765 -9.16228433 -12.74642764 -1.06847082 0 0 Z M-19.93945312 20.97363281 C-18.3380401 24.68316123 -16.7328337 28.3910365 -15.12695312 32.09863281 C-14.67513672 33.14535156 -14.22332031 34.19207031 -13.7578125 35.27050781 C-11.60367846 40.23916735 -9.44126332 45.1694923 -6.93945312 49.97363281 C-6.27945313 49.97363281 -5.61945313 49.97363281 -4.93945312 49.97363281 C-3.16212383 47.84109583 -3.16212383 47.84109583 -1.31445312 45.08300781 C-0.60804687 44.06335938 0.09835938 43.04371094 0.82617188 41.99316406 C1.56351563 40.91421875 2.30085938 39.83527344 3.06054688 38.72363281 C4.1665625 37.12841797 4.1665625 37.12841797 5.29492188 35.50097656 C9.5355604 29.44931833 9.5355604 29.44931833 13.06054688 22.97363281 C9.24858535 22.6339486 5.43590767 22.30305686 1.62304688 21.97363281 C0.01913086 21.83054687 0.01913086 21.83054687 -1.6171875 21.68457031 C-7.75248083 21.15922409 -13.78197818 20.87003702 -19.93945312 20.97363281 Z " fill="#E62E32" transform="translate(70.939453125,24.0263671875)"/>
<path d="M0 0 C1.04184448 0.01740234 1.04184448 0.01740234 2.10473633 0.03515625 C10.72957906 0.23884751 19.31804206 1.01585763 27.90625 1.79296875 C29.56765337 1.93813046 31.22911168 2.08266474 32.890625 2.2265625 C36.8965005 2.5748374 40.90154723 2.93146869 44.90625 3.29296875 C44.90625 3.62296875 44.90625 3.95296875 44.90625 4.29296875 C41.26043402 4.32235955 37.61464913 4.33989749 33.96875 4.35546875 C32.94716797 4.36384766 31.92558594 4.37222656 30.87304688 4.38085938 C25.5551285 4.39784953 20.40324749 4.20439863 15.12866211 3.53979492 C10.97805467 3.07881897 6.82890344 2.98709403 2.65625 2.91796875 C1.34914063 2.86189453 1.34914063 2.86189453 0.015625 2.8046875 C-4.52767218 2.74235568 -6.44010831 2.77933289 -10.12109375 5.671875 C-11.75894825 7.84811336 -13.06928264 9.77836704 -14.09375 12.29296875 C-14.66593287 9.59553524 -14.38081527 7.8378299 -13.09765625 5.40234375 C-9.31948915 0.57414059 -6.01008506 -0.11171019 0 0 Z " fill="#94282B" transform="translate(35.09375,21.70703125)"/>
<path d="M0 0 C0.99 0 1.98 0 3 0 C3.26554687 0.67546875 3.53109375 1.3509375 3.8046875 2.046875 C4.15789063 2.93890625 4.51109375 3.8309375 4.875 4.75 C5.22304688 5.63171875 5.57109375 6.5134375 5.9296875 7.421875 C6.93715443 9.9615841 6.93715443 9.9615841 8.1328125 12.140625 C9 14 9 14 9 17 C9.66 17 10.32 17 11 17 C11 18.32 11 19.64 11 21 C11.66 21 12.32 21 13 21 C13 21.66 13 22.32 13 23 C12.01 22.67 11.02 22.34 10 22 C8.8125 18.9375 8.8125 18.9375 8 16 C7.34 16 6.68 16 6 16 C4.99303432 13.89915791 3.9946411 11.79420511 3 9.6875 C2.443125 8.51574219 1.88625 7.34398438 1.3125 6.13671875 C0 3 0 3 0 0 Z " fill="#CD343D" transform="translate(44,82)"/>
<path d="M0 0 C1.15625 1.703125 1.15625 1.703125 2 4 C1.09375 6.296875 1.09375 6.296875 -0.5 8.75 C-1.05945313 9.61882813 -1.61890625 10.48765625 -2.1953125 11.3828125 C-4.69326 15.00537705 -7.27714943 18.54333155 -10 22 C-10 19 -10 19 -8.5 15.625 C-6.8207726 12.22071523 -6.8207726 12.22071523 -7 9.1875 C-7 8.465625 -7 7.74375 -7 7 C-4 5 -4 5 -1 5 C-0.67 3.35 -0.34 1.7 0 0 Z " fill="#8E1E21" transform="translate(114,36)"/>
<path d="M0 0 C2.97 0 5.94 0 9 0 C9 0.33 9 0.66 9 1 C7.02 1.33 5.04 1.66 3 2 C3.51691406 3.12019531 4.03382812 4.24039063 4.56640625 5.39453125 C5.23228039 6.86695717 5.89761715 8.33962619 6.5625 9.8125 C6.90474609 10.55048828 7.24699219 11.28847656 7.59960938 12.04882812 C7.91865234 12.76103516 8.23769531 13.47324219 8.56640625 14.20703125 C8.86490479 14.8616333 9.16340332 15.51623535 9.47094727 16.19067383 C10 18 10 18 9 21 C8.67 20.01 8.34 19.02 8 18 C7.34 18 6.68 18 6 18 C5.34 15.03 4.68 12.06 4 9 C3.34 9 2.68 9 2 9 C1.34 6.03 0.68 3.06 0 0 Z " fill="#A02929" transform="translate(49,44)"/>
<path d="M0 0 C1.78547548 2.19126536 3.01715957 4.04340363 4.0625 6.6875 C4.76803846 9.15938605 4.76803846 9.15938605 7 10 C7.66 8.68 8.32 7.36 9 6 C10 8 10 8 9.0625 11.125 C8.711875 12.07375 8.36125 13.0225 8 14 C6.0625 13.6875 6.0625 13.6875 4 13 C3.67 12.01 3.34 11.02 3 10 C2.01 9.34 1.02 8.68 0 8 C-0.40843923 5.28796348 -0.13336867 2.7562858 0 0 Z " fill="#AB2B2F" transform="translate(59,64)"/>
<path d="M0 0 C0.99 0 1.98 0 3 0 C1.60507097 4.06854299 0.378372 7.26512743 -3 10 C-7.08819055 10.22620218 -11.00690454 9.91218973 -15 9 C-15.33 8.34 -15.66 7.68 -16 7 C-12.04 7 -8.08 7 -4 7 C-3.67 6.01 -3.34 5.02 -3 4 C-2.01 4 -1.02 4 0 4 C0 2.68 0 1.36 0 0 Z " fill="#C2363D" transform="translate(71,98)"/>
<path d="M0 0 C3.38060901 3.11371882 5.70920036 5.54087397 7 10 C7 10.99 7 11.98 7 13 C7.66 13.33 8.32 13.66 9 14 C8.01 15.485 8.01 15.485 7 17 C5.82592979 14.73272667 4.66060261 12.46165376 3.5 10.1875 C3.16613281 9.54490234 2.83226562 8.90230469 2.48828125 8.24023438 C0.99760916 5.30452301 0 3.33873483 0 0 Z " fill="#8C1F21" transform="translate(26,43)"/>
<path d="M0 0 C0.99 0.66 1.98 1.32 3 2 C2.00419922 2.02126953 2.00419922 2.02126953 0.98828125 2.04296875 C-4.94189679 2.36167266 -4.94189679 2.36167266 -10 5.3125 C-11.63830393 7.51397091 -12.96803984 9.46700687 -14 12 C-14.4375 9.9375 -14.4375 9.9375 -14 7 C-10.25117706 1.59990981 -6.80991781 -1.17863962 0 0 Z " fill="#B03038" transform="translate(35,22)"/>
<path d="M0 0 C0.33 0.66 0.66 1.32 1 2 C-0.12047806 5.36143418 -1.49707183 6.57528834 -4 9 C-4.33 9.66 -4.66 10.32 -5 11 C-5.99 11 -6.98 11 -8 11 C-6.46457536 6.52167812 -4.39145948 2.19572974 0 0 Z " fill="#AE2D33" transform="translate(84,49)"/>
<path d="M0 0 C0.99 0 1.98 0 3 0 C3.4813341 1.72856459 3.95996971 3.45788071 4.4375 5.1875 C4.70433594 6.15042969 4.97117187 7.11335938 5.24609375 8.10546875 C5.92880018 10.72663697 6.49892195 13.338935 7 16 C3.26170422 11.70095985 0 5.75071925 0 0 Z " fill="#761718" transform="translate(44,82)"/>
<path d="M0 0 C1.32 0.33 2.64 0.66 4 1 C1.69 4.3 -0.62 7.6 -3 11 C-4 7 -4 7 -3.1875 4.8125 C-2 3 -2 3 0 2 C0 1.34 0 0.68 0 0 Z " fill="#A02428" transform="translate(88,74)"/>
<path d="M0 0 C0.66 0 1.32 0 2 0 C2.33 1.65 2.66 3.3 3 5 C3.66 5 4.32 5 5 5 C6.35439668 7.70879335 6.06501451 10.00933268 6 13 C2.57068046 9.2440786 1.43570917 4.76533255 0 0 Z " fill="#8D1F24" transform="translate(38,69)"/>
<path d="M0 0 C0.33 0.99 0.66 1.98 1 3 C-2.21311475 8.73770492 -2.21311475 8.73770492 -6 10 C-4.6302836 6.00499382 -2.74277578 3.19990508 0 0 Z " fill="#A42C30" transform="translate(75,60)"/>
<path d="M0 0 C1.65 0.33 3.3 0.66 5 1 C3.68 3.31 2.36 5.62 1 8 C0.34 7.34 -0.32 6.68 -1 6 C-0.625 2.875 -0.625 2.875 0 0 Z " fill="#AF262B" transform="translate(92,66)"/>
<path d="M0 0 C4 2 4 2 4.875 4.5 C4.91625 5.325 4.9575 6.15 5 7 C4.34 7.66 3.68 8.32 3 9 C2.01 6.03 1.02 3.06 0 0 Z " fill="#A02429" transform="translate(34,60)"/>
<path d="M0 0 C0.99 0 1.98 0 3 0 C3.33 2.97 3.66 5.94 4 9 C1.49701566 6.06171403 0.53069061 3.82097239 0 0 Z " fill="#942123" transform="translate(22,34)"/>
<path d="M0 0 C0.99 0 1.98 0 3 0 C1.8141763 3.37503669 0.72426311 5.64722731 -2 8 C-2.33 6.68 -2.66 5.36 -3 4 C-2.01 4 -1.02 4 0 4 C0 2.68 0 1.36 0 0 Z " fill="#D4333A" transform="translate(71,98)"/>
<path d="M0 0 C0.66 0 1.32 0 2 0 C2.66 2.31 3.32 4.62 4 7 C3.01 7.495 3.01 7.495 2 8 C2 7.01 2 6.02 2 5 C1.34 5 0.68 5 0 5 C0 3.35 0 1.7 0 0 Z " fill="#B22F2F" transform="translate(55,57)"/>
</svg>
